<?xml version="1.0" encoding="UTF-8"?>
<svg id="Layer_1" data-name="Layer 1" xmlns="http://www.w3.org/2000/svg" viewBox="0 0 182.01 77.47">
  <defs>
    <style>
      .cls-1 {
        fill: #2d2d2d;
      }

      .cls-2 {
        fill: #f6e700;
      }
    </style>
  </defs>
  <path class="cls-1" d="m10.56,0h160.88c5.83,0,10.56,4.73,10.56,10.56v56.34c0,5.83-4.73,10.57-10.57,10.57H10.56c-5.83,0-10.56-4.73-10.56-10.56V10.56C0,4.73,4.73,0,10.56,0Z"/>
  <g>
    <path class="cls-2" d="m91.55,46.06l4.52-4.87v-3.87h-15.78v4.77h8.61l-3.9,4.21v3.9h2.59c2.23,0,3.34.71,3.34,2.12,0,.73-.31,1.29-.93,1.68-.62.4-1.47.59-2.53.59s-2.09-.16-3.16-.47c-1.07-.31-2.03-.76-2.89-1.34l-2.25,4.65c1.1.69,2.41,1.22,3.91,1.59,1.51.37,3.03.56,4.57.56,2.1,0,3.86-.34,5.29-1.01,1.42-.67,2.48-1.56,3.18-2.67.7-1.1,1.04-2.3,1.04-3.59,0-1.58-.48-2.93-1.45-4.04-.96-1.11-2.35-1.86-4.16-2.23Zm23.66-.53h-8.42v-8.2h-6.17v21.83h6.17v-8.52h8.42v8.52h6.18v-21.83h-6.18v8.2Zm26.21-7.41c-1.57-.82-3.38-1.23-5.44-1.23s-3.88.41-5.44,1.23c-1.57.82-2.79,2.02-3.65,3.59-.86,1.57-1.29,3.46-1.29,5.66v11.79h6.08v-4.84h8.52v4.84h6.18v-11.79c0-2.2-.43-4.09-1.29-5.66-.87-1.57-2.08-2.76-3.65-3.59Zm-1.23,11.43h-8.52v-2.72c0-1.6.38-2.8,1.15-3.62.77-.81,1.81-1.22,3.12-1.22s2.32.41,3.09,1.22c.77.81,1.15,2.02,1.15,3.62v2.72Zm23.22-1.69l8.41-10.54h-7.37l-7.67,10.35h-.16v-10.35h-6.14v21.83h6.14v-10.37l7.42,10.37h8.01l-8.65-11.29Zm-30.99-21.74h3.51v4.15h3.8v-11.27h-3.8v3.99h-3.51v-3.99h-3.8v11.27h3.8v-4.15Zm35.29-1.69v5.84h3.74v-11.27h-3.57l-3.88,5.86v-5.86h-3.73v11.27h3.59l3.86-5.84Zm-4.56-6.76c.55.46,1.45.69,2.69.69s2.14-.23,2.7-.69c.56-.46.84-1.15.84-2.08h-2.53c0,.37-.08.63-.23.79-.15.16-.42.24-.78.24s-.62-.08-.77-.24c-.15-.16-.22-.42-.22-.79h-2.53c0,.92.27,1.62.82,2.08Zm-56.19,12.12c.95.5,2.03.75,3.22.75,1.1,0,2.07-.19,2.93-.58.86-.39,1.57-.94,2.12-1.67l-2.4-2.14c-.7.88-1.52,1.32-2.46,1.32-.79,0-1.43-.25-1.92-.77-.48-.51-.72-1.19-.72-2.05s.24-1.54.72-2.05c.48-.51,1.12-.76,1.92-.76.95,0,1.77.44,2.46,1.32l2.4-2.14c-.56-.73-1.27-1.29-2.12-1.68-.86-.39-1.84-.58-2.93-.58-1.19,0-2.27.25-3.22.75-.96.5-1.7,1.2-2.24,2.09-.54.9-.81,1.91-.81,3.05s.27,2.15.81,3.05c.54.9,1.29,1.59,2.24,2.09Zm50.65-10.78h-3.74v11.27h3.74v-11.27Zm-4.77,7.18c0-1.22-.38-2.15-1.14-2.78-.76-.63-1.85-.94-3.25-.94h-2.33v-3.46h-3.74v11.27h5.59c1.51,0,2.7-.35,3.57-1.05.87-.7,1.3-1.71,1.3-3.04Zm-4.19,1.07c-.25.24-.56.36-.95.36h-1.59v-2.49h1.59c.88,0,1.32.37,1.32,1.13,0,.43-.12.76-.37,1.01Zm-21.78-8.25h-10.34v2.95h3.3v8.32h3.74v-8.32h3.3v-2.95Zm-42.26,8c.61,0,1.29-.12,2.04-.34v3.6h3.74v-11.27h-3.74v4.74c-.41.17-.93.26-1.56.26s-1.07-.16-1.37-.49c-.3-.33-.45-.83-.45-1.52v-2.98h-3.74v3.4c0,1.5.43,2.65,1.29,3.43.87.79,2.12,1.18,3.78,1.18Zm17.79.4h-5.63v-1.48h4.77v-2.74h-4.77v-1.32h5.43v-2.87h-9.16v11.27h9.37v-2.86Z"/>
    <path class="cls-2" d="m52.77,27.26l-18.21,18.21-10.08-10.07-4.98,4.98,15.06,15.06,23.19-23.19-4.98-4.98Zm-35.17-6.13c0-1.94,1.58-3.52,3.52-3.52h8.45v-7.04h-8.45c-5.83,0-10.56,4.73-10.56,10.57v8.45h7.04v-8.45Zm42.26,0v8.45h7.04v-8.45c0-5.83-4.73-10.56-10.56-10.56h-8.45v7.04h8.45c1.95,0,3.52,1.58,3.52,3.52Zm0,26.76v8.45c0,1.95-1.58,3.52-3.52,3.52h-8.45v7.04h8.45c5.83,0,10.56-4.73,10.56-10.57v-8.45h-7.04Zm-42.26,8.45v-8.45h-7.04v8.45c0,5.84,4.73,10.57,10.56,10.57h8.45v-7.04h-8.45c-1.95,0-3.52-1.58-3.52-3.52Z"/>
  </g>
</svg>